<svg xmlns="http://www.w3.org/2000/svg" width="16" height="16" viewBox="0 0 16 16" fill="none">
  <g clip-path="url(#clip0_2232_24350)">
    <path d="M14.4236 2.77042L5.84495 11.3491L1.57637 7.08053C1.40932 6.91348 1.17859 6.81011 0.923396 6.81011C0.413475 6.81011 0 7.22358 0 7.7335C0 7.98869 0.103369 8.21943 0.27042 8.38648L5.19428 13.3057C5.36133 13.4728 5.59206 13.5766 5.84725 13.5766C6.10245 13.5766 6.33318 13.4732 6.50023 13.3057L15.7296 4.07637C15.8966 3.90932 16 3.67859 16 3.4234C16 2.91347 15.5865 2.5 15.0766 2.5C14.8214 2.5 14.5907 2.60337 14.4236 2.77042Z"/>
  </g>
  <defs>
    <clipPath id="clip0_2232_24350">
      <rect width="16" height="16" fill="white"/>
    </clipPath>
  </defs>
</svg>
