<svg width="16" height="16" viewBox="0 0 16 16" fill="none" xmlns="http://www.w3.org/2000/svg">
<g id="HDS-sprocket" clip-path="url(#clip0_2244_24942)">
<path id="Vector" d="M12.2212 5.26492V3.35962C12.7244 3.12247 13.0669 2.61979 13.0674 2.03705V1.99652C13.0644 1.18879 12.4107 0.535107 11.6035 0.532067H11.5624C10.7547 0.535107 10.101 1.18879 10.098 1.99601V2.03705C10.1015 2.61929 10.4425 3.12044 10.9351 3.35557L10.9437 3.35962V5.26492C10.1846 5.38046 9.5127 5.68855 8.95986 6.13751L8.96746 6.13143L3.74307 2.06746C3.78006 1.94331 3.80185 1.80041 3.80388 1.65295V1.65194C3.80388 0.739826 3.06405 0 2.15194 0C1.23983 0 0.5 0.739826 0.5 1.65194C0.5 2.56253 1.23679 3.30084 2.14637 3.30388H2.14687C2.44787 3.30135 2.7286 3.21875 2.97031 3.07686L2.96271 3.08092L8.10095 7.07902C7.66617 7.72611 7.40724 8.52269 7.40724 9.37957C7.40724 10.2775 7.69202 11.1095 8.17595 11.7891L8.16733 11.7764L6.58127 13.3371C6.47941 13.3098 6.36236 13.2941 6.24176 13.2941C5.49433 13.2941 4.88879 13.8996 4.88879 14.647C4.88879 15.3945 5.49433 16 6.24176 16C6.98918 16 7.59473 15.3945 7.59473 14.647V14.6288V14.6298C7.59067 14.491 7.56686 14.3592 7.52581 14.2351L7.52885 14.2447L9.04904 12.7245C9.73515 13.2403 10.6017 13.5505 11.5401 13.5505C13.8432 13.5505 15.7105 11.6832 15.7105 9.38008C15.7105 7.31718 14.2131 5.60443 12.246 5.26898L12.2212 5.26543V5.26492ZM11.5827 11.523H11.5776C10.3939 11.523 9.43416 10.5633 9.43416 9.37957C9.43416 8.19585 10.3939 7.2361 11.5776 7.2361C12.7613 7.2361 13.7211 8.19585 13.7211 9.37957V9.38464C13.7211 10.5658 12.7639 11.523 11.5827 11.523Z" fill="white"/>
</g>
<defs>
<clipPath id="clip0_2244_24942">
<rect width="16" height="16" fill="white"/>
</clipPath>
</defs>
</svg>
